<?xml version="1.0" encoding="utf-8"?>
<!-- Generator: Adobe Illustrator 16.2.0, SVG Export Plug-In . SVG Version: 6.00 Build 0)  -->
<!DOCTYPE svg PUBLIC "-//W3C//DTD SVG 1.1//EN" "http://www.w3.org/Graphics/SVG/1.1/DTD/svg11.dtd">
<svg version="1.1" id="Layer_1" xmlns="http://www.w3.org/2000/svg" xmlns:xlink="http://www.w3.org/1999/xlink" x="0px" y="0px"
	 width="36.762px" height="145.299px" viewBox="0 0 36.762 145.299" enable-background="new 0 0 36.762 145.299"
	 xml:space="preserve">
<g>
	<g>
		<circle fill="#9198A3" cx="18.381" cy="126.916" r="18.381"/>
		<rect x="8.799" y="9.583" fill="#9198A3" width="19.164" height="114.62"/>
		<circle fill="#9198A3" cx="18.381" cy="9.583" r="9.582"/>
	</g>
	<g>
		<circle fill="#AAB8CC" cx="18.381" cy="126.916" r="14.705"/>
		<circle fill="#AAB8CC" cx="18.381" cy="9.583" r="6.132"/>
		<rect x="12.249" y="9.583" fill="#AAB8CC" width="12.265" height="105.601"/>
	</g>
	<g>
		<defs>
			<path id="SVGID_1_" d="M24.514,113.564V9.583c0-3.388-2.746-6.133-6.133-6.133s-6.132,2.745-6.132,6.133v103.981
				c-5.056,2.326-8.573,7.422-8.573,13.352c0,8.121,6.584,14.705,14.705,14.705s14.705-6.584,14.705-14.705
				C33.086,120.986,29.568,115.891,24.514,113.564z"/>
		</defs>
		<clipPath id="SVGID_2_">
			<use xlink:href="#SVGID_1_"  overflow="visible"/>
		</clipPath>
		<rect x="-8.3" y="41.123" clip-path="url(#SVGID_2_)" fill="#CC3333" width="53.249" height="104.176"/>
	</g>
	<polygon opacity="0.6" fill="#FFFFFF" points="20.616,9.583 22.616,9.583 22.616,113.564 20.616,114.564 	"/>
	<path opacity="0.6" fill="#FFFFFF" d="M20.616,114.564c0,0,9.792,3.373,11.188,12.352c0,0,0.541-8.313-9.188-13.352L20.616,114.564
		z"/>
	<path opacity="0.6" fill="#FFFFFF" d="M5.033,126.916c0,0,2.167,13.926,18.979,11.52c0,0-1.563,1.594-5.631,1.594
		C17.2,140.029,6.388,139.217,5.033,126.916z"/>
	<path opacity="0.6" fill="#FFFFFF" d="M20.616,9.583c0,0-0.118-4.147-2.235-5.022c4.235,0,4.235,5.022,4.235,5.022H20.616z"/>
</g>
</svg>
